<svg id="Ebene_1" data-name="Ebene 1" xmlns="http://www.w3.org/2000/svg" xmlns:xlink="http://www.w3.org/1999/xlink" viewBox="0 0 216 70.6"><defs><style>.cls-1{fill:none;}.cls-2{fill:#95784c;}.cls-3{fill:#212b59;}.cls-4{clip-path:url(#clip-path);}</style><clipPath id="clip-path" transform="translate(-1 -3.9)"><path class="cls-1" d="M101.1,25.3a40.27,40.27,0,0,0-6.3.3c-3.3.6-5.5,2.6-6.2,5L84,45.2c-.1.5-.4,1.3-.5,1.9-.5,2.4.6,4,3.1,4.6a43,43,0,0,0,6.5.3h8.2l1.7-5.3H94.5a21.79,21.79,0,0,1-2.7-.1c-.5,0-.8-.3-.7-.8a9.25,9.25,0,0,1,.3-1l1.1-3.7h12l1.6-5.2h-12l1.4-4.3a1.64,1.64,0,0,1,1.4-1.1,28.12,28.12,0,0,1,3-.1h8.2l1.5-5.1Zm102.7,0a40.27,40.27,0,0,0-6.3.3c-3.3.6-5.5,2.6-6.2,5l-4.6,14.6c-.1.5-.4,1.3-.5,1.9-.5,2.4.6,4,3.1,4.6a43,43,0,0,0,6.5.3H204l1.7-5.3h-8.5a21.79,21.79,0,0,1-2.7-.1c-.5,0-.8-.3-.7-.8a9.25,9.25,0,0,1,.3-1l1.1-3.7h12l1.6-5.2h-12l1.4-4.3a1.64,1.64,0,0,1,1.4-1.1,28.12,28.12,0,0,1,3-.1h8.2l1.5-5.1ZM33,25.2,24.7,51.8h7.1l8.3-26.6Zm34.7,0L66,30.4h7L66.2,51.8h7.1l6.8-21.4h7l1.7-5.2Zm89.5,0-8.4,26.6h7.1l8.4-26.6Zm-39,6.3a1.93,1.93,0,0,1,1.4-1.1,21,21,0,0,1,2.7-.1c1.1,0,2.4.1,2.6.1a.79.79,0,0,1,.8.9,34.32,34.32,0,0,1-1.2,3.9,1.68,1.68,0,0,1-1.4.8,25.38,25.38,0,0,1-3,.1h-3.4Zm-.4-6.1a7.47,7.47,0,0,0-6.1,5l-6.8,21.4H112c1-3.4,2.3-7.2,3.3-10.7h3c1.5,0,2.1.7,2.1,1.9l-.1,8.7h7.3l-.3-8.5a3.65,3.65,0,0,0-1.8-3.3v-.1c2.4-.4,5-2,5.9-4.1a36.79,36.79,0,0,0,1.8-5.9c.5-2.2-.8-3.7-2.8-4.3a26.94,26.94,0,0,0-6-.4,45.05,45.05,0,0,0-6.6.3m19.9-.3-6.3,19.8a15.19,15.19,0,0,0-.6,2c-.5,2.4.6,4,3.1,4.6a43,43,0,0,0,6.5.3h7.1l1.7-5.3h-7.4a21.79,21.79,0,0,1-2.7-.1c-.5,0-.8-.3-.7-.8a8.11,8.11,0,0,0,.3-1.1l6.1-19.4Zm34.3.3c-3.3.6-5.5,2.6-6.2,5L159,51.9h7.2l6.4-20.3a1.64,1.64,0,0,1,1.4-1.1,28.12,28.12,0,0,1,3-.1,23.52,23.52,0,0,1,2.8.1c.5,0,.8.3.7.8a9.25,9.25,0,0,1-.3,1L174,51.8h7.2l6.3-19.9c.1-.5.4-1.3.5-1.9.4-2.4-.7-4-3.1-4.6a44.37,44.37,0,0,0-6.6-.3,40.27,40.27,0,0,0-6.3.3M48.9,25.3c-3.3.6-5.5,2.6-6.2,5L35.9,51.8H43l6.3-20.2a1.64,1.64,0,0,1,1.4-1.1,28.12,28.12,0,0,1,3-.1,23.52,23.52,0,0,1,2.8.1c.5,0,.8.3.7.8a9.25,9.25,0,0,1-.3,1L50.7,51.8h7.2l6.3-19.9c.1-.5.4-1.3.5-1.9.5-2.4-.6-4-2.9-4.7a44.37,44.37,0,0,0-6.6-.3,40.27,40.27,0,0,0-6.3.3"/></clipPath></defs><title>interline-logo</title><path class="cls-2" d="M29.2,74.5C15.9,67.5,8,57,8,44.8,8,23.9,33.3,7,64.4,7a74.31,74.31,0,0,1,27.4,4.8C84,7.3,70.3,3.9,57.4,3.9,26.2,3.9,1,20.9,1,41.7c0,14,11.4,26.2,28.2,32.8" transform="translate(-1 -3.9)"/><path class="cls-3" d="M29.2,74.5C15.9,67.5,6.5,57,6.5,44.8,6.5,23.9,31.3,6.5,62.4,6.5a85.45,85.45,0,0,1,29.4,5.3C84,7.3,70.3,3.9,57.4,3.9,26.2,3.9,1,20.9,1,41.7c0,14,11.4,26.2,28.2,32.8" transform="translate(-1 -3.9)"/><path class="cls-3" d="M115.1,60.7a6.37,6.37,0,0,0-.2.7l-.8,2.5a2.08,2.08,0,0,1-1.8,1.4,5.31,5.31,0,0,1-1.4.1,6.18,6.18,0,0,1-1.5-.1c-.6-.2-1-.6-.8-1.2.1-.4.2-.7.3-1.1a2.21,2.21,0,0,1,1.8-1.4c.3,0,.6-.1,1.6-.1h.7a.55.55,0,0,0,.5-.3c0-.1.1-.2.1-.3s-.1-.3-.3-.4h-2.8l.3-1.1h1.9a6.18,6.18,0,0,1,1.5.1c.7.1,1.1.5.9,1.2m-3.2,1.8h-.8a.87.87,0,0,0-.8.6c-.1.2-.1.4-.2.5a.55.55,0,0,0,.3.5h1.5a.79.79,0,0,0,.8-.5l.4-1.1Zm8.6-2.1h-2a.87.87,0,0,0-.8.6l-1.3,4.2H115l1.4-4.5a2.08,2.08,0,0,1,1.8-1.4,5.31,5.31,0,0,1,1.4-.1h1.3Zm4.7,0h-2a.87.87,0,0,0-.8.6l-1.3,4.2h-1.5l1.4-4.5a2.08,2.08,0,0,1,1.8-1.4,5.31,5.31,0,0,1,1.4-.1h1.3Zm2.7-1.7h-1.5l.4-1.1h1.5Zm-2.1,6.6h-1.5l1.9-6h1.5Zm6.1-1.2a2.2,2.2,0,0,1-2,1.2h-.5A1.29,1.29,0,0,1,128,64l.4-4.7h1.5l-.5,4.4c0,.4.2.5.5.5a.55.55,0,0,0,.6-.4l2.4-4.5h1.5Zm8.5-3.4a8.11,8.11,0,0,0-.3,1.1,2.08,2.08,0,0,1-1.8,1.4c-.3,0-.6.1-1.6.1h-1.1l-.1.2c0,.2-.1.3-.1.4s.1.3.3.4h2.9l-.3,1.1h-2a6.18,6.18,0,0,1-1.5-.1c-.6-.2-1-.6-.8-1.2a6.37,6.37,0,0,0,.2-.7l.8-2.5a2.08,2.08,0,0,1,1.8-1.4,5.31,5.31,0,0,1,1.4-.1,6.18,6.18,0,0,1,1.5.1,1,1,0,0,1,.7,1.2m-1.9-.2H137a.79.79,0,0,0-.8.5l-.4,1.1h2a.87.87,0,0,0,.8-.6c.1-.2.1-.4.2-.5.1-.3,0-.5-.3-.5m13.6,3.4a2.08,2.08,0,0,1-1.8,1.4,4.48,4.48,0,0,1-1.2.1,4.12,4.12,0,0,1-1.2-.1.76.76,0,0,1-.4-.2,6.89,6.89,0,0,1-.8.3,3.78,3.78,0,0,1-1.2.1,4.89,4.89,0,0,1-1.3-.1c-.6-.2-1-.6-.8-1.2a6.37,6.37,0,0,0,.2-.7l1.2-3.9h1.5l-1.3,4c0,.1-.1.2-.1.4a.55.55,0,0,0,.3.5h1c.4-.1.7-.2.8-.5l1.4-4.3h1.5l-1.3,4c0,.1-.1.2-.1.3a.55.55,0,0,0,.3.5h1a1,1,0,0,0,.8-.6l1.3-4.2h1.5Zm4.5-5.2h-1.5l.4-1.1H157Zm-2.1,6.6H153l1.9-6h1.5Zm6.6-6-.3,1.1h-2l-.9,3c0,.1-.1.2-.1.3s0,.4.3.5h1.5l-.3,1.1a14.79,14.79,0,0,1-2.2-.1c-.6-.2-1-.6-.8-1.2a6.37,6.37,0,0,0,.2-.7l1.6-5.2h1.5l-.4,1.3h1.9Zm6,1.4a6.37,6.37,0,0,0-.2.7l-1.3,3.9h-1.5l1.3-4c0-.1.1-.2.1-.3a.55.55,0,0,0-.3-.5h-1.6a.87.87,0,0,0-.8.6l-1.3,4.2H160l2.4-7.7h1.5l-.6,1.8h1.3a6.18,6.18,0,0,1,1.5.1c.8.1,1.2.5,1,1.2m9.7,0a6.37,6.37,0,0,0-.2.7l-.8,2.5a2.08,2.08,0,0,1-1.8,1.4,5.31,5.31,0,0,1-1.4.1,6.18,6.18,0,0,1-1.5-.1c-.6-.2-1-.6-.8-1.2.1-.4.2-.7.3-1.1a2.21,2.21,0,0,1,1.8-1.4c.3,0,.6-.1,1.6-.1h.7a.55.55,0,0,0,.5-.3c0-.1.1-.2.1-.3s-.1-.3-.3-.4h-2.8l.3-1.1h1.9a6.18,6.18,0,0,1,1.5.1.94.94,0,0,1,.9,1.2m-3.3,1.8h-.8a.87.87,0,0,0-.8.6c-.1.2-.1.4-.2.5a.55.55,0,0,0,.3.5h1.5a.79.79,0,0,0,.8-.5l.4-1.1Zm12.2-2.1h-2.6a.87.87,0,0,0-.8.6c0,.1,0,.1-.1.2s0,.4.3.5h1.2c1.1,0,1.7.5,1.6,1.3-.1.3-.1.5-.2.8a2.21,2.21,0,0,1-1.8,1.4,5.31,5.31,0,0,1-1.4.1h-2.2l.3-1.1h2.8a.89.89,0,0,0,.8-.5.37.37,0,0,0,.1-.3c.1-.4-.2-.5-.6-.5h-.7a2.22,2.22,0,0,1-.9-.1,1,1,0,0,1-.8-1.2c.1-.2.1-.5.2-.7a2.41,2.41,0,0,1,1.8-1.4,5.31,5.31,0,0,1,1.4-.1H186Zm9.9.3a6.37,6.37,0,0,0-.2.7l-1.2,3.9h-1.5l1.3-4c0-.1.1-.2.1-.4a.55.55,0,0,0-.3-.5h-1c-.4.1-.7.2-.8.5l-1.4,4.3h-1.5l1.3-4c0-.1.1-.2.1-.3a.55.55,0,0,0-.3-.5h-1a1,1,0,0,0-.8.6l-1.3,4.2h-1.5l1.4-4.5a2.08,2.08,0,0,1,1.8-1.4,4.48,4.48,0,0,1,1.2-.1,4.12,4.12,0,0,1,1.2.1.76.76,0,0,1,.4.2,6.89,6.89,0,0,1,.8-.3,3.78,3.78,0,0,1,1.2-.1,4.89,4.89,0,0,1,1.3.1c.5.4.9.8.7,1.5m3.8-2h-1.5l.4-1.1h1.5Zm-2.1,6.6h-1.5l1.9-6h1.5Zm3.3-1.9c0,.1-.1.2-.1.3s0,.4.3.5h.8l-.3,1.1a5.31,5.31,0,0,1-1.4-.1c-.6-.2-1-.6-.8-1.2a6.37,6.37,0,0,0,.2-.7l1.8-5.7h1.5Zm8.2-2.7a8.11,8.11,0,0,0-.3,1.1,2.08,2.08,0,0,1-1.8,1.4c-.3,0-.6.1-1.6.1H204l-.1.2c0,.2-.1.3-.1.4s.1.3.3.4H207l-.3,1.1h-2a6.18,6.18,0,0,1-1.5-.1c-.6-.2-1-.6-.8-1.2a6.37,6.37,0,0,0,.2-.7l.8-2.5a2.08,2.08,0,0,1,1.8-1.4,5.31,5.31,0,0,1,1.4-.1,6.18,6.18,0,0,1,1.5.1,1,1,0,0,1,.7,1.2m-1.9-.2h-1.5a.79.79,0,0,0-.8.5l-.4,1.1h2a.87.87,0,0,0,.8-.6c.1-.2.1-.4.2-.5.1-.3,0-.5-.3-.5" transform="translate(-1 -3.9)"/><g class="cls-4"><rect class="cls-3" x="23.6" y="21.2" width="187.9" height="21.2"/><rect class="cls-2" x="23.6" y="42.4" width="187.9" height="5.5"/></g><path class="cls-3" d="M215.06,23.08a1.17,1.17,0,0,0-.48.48,1.3,1.3,0,0,0-.18.65,1.37,1.37,0,0,0,.17.65,1.19,1.19,0,0,0,.49.48,1.23,1.23,0,0,0,.64.17,1.26,1.26,0,0,0,.65-.17,1.11,1.11,0,0,0,.48-.48,1.37,1.37,0,0,0,.17-.65,1.4,1.4,0,0,0-.17-.65,1.19,1.19,0,0,0-.49-.48,1.29,1.29,0,0,0-1.28,0" transform="translate(-1 -3.9)"/></svg>